# xmcd
#
# Track frame offsets:
#	150
#	13159
#	25006
#	35163
#	45903
#	57381
#	68458
#	78195
#	89831
#	101570
#	110097
#	119263
#	130720
#	142666
#	153944
#	163630
#	174768
#	187052
#	198611
#	210606
#
# Disc length: 2949 seconds
#
# Revision: 2
# Processed by: cddbd v1.5.2PL0 Copyright (c) Steve Scherf et al.
# Submitted via: audiograbber 1.83.01
#
DISCID=090b8314
DTITLE=Various Artist - London American Doowop 1959 - 9961 CD 1
DYEAR=2012
DGENRE=Oldies
TTITLE0=Crests, The - Sixteen Candles (59) (Doo Wop)
TTITLE1=Skyliners, The - Since I Don't Have You (58) (Doo Wop)
TTITLE2=Cadillacs, The - Peek A Boo (58) (Doo Wop) !
TTITLE3=Fiestas, The - So Fine (59) (Doo Wop)
TTITLE4=Dion and The Belmonts - A Teenager In Love (59) (Doo Wop) !
TTITLE5=Falcons, The - You're So Fine (59) (Doo Wop)
TTITLE6=Fiestas, The - Last Night I Dreamed (59) (Doo Wop)
TTITLE7=Yu Tones, The - Still In Love With You (59) (Doo Wop)
TTITLE8=Skyliners, The - This I Swear (59) (Doo Wop)
TTITLE9=Clovers, The - Love Potion No. 9 (59) (Doo Wop) !
TTITLE10=Crests, The - The Angels Listened In (59) (Doo Wop)
TTITLE11=Eternals, The - Rockin' In The Jungle (59) (Doo Wop)
TTITLE12=Dion and The Belmonts - Where Or When (59) (Doo Wop)
TTITLE13=Drifters, The - This Magic Moment (59) (Doo Wop)
TTITLE14=Fireflies, The - I Can't Say Goodbye (60) (Doo Wop)
TTITLE15=Clovers, The - One Mint Julip (60) (Doo Wop)
TTITLE16=Hollywood Arglys, The - Alley Oop (60) (Doo Wop) !!
TTITLE17=Bobbettes, The - I Shot Mr. Lee (60) (Doo Wop)
TTITLE18=Videls, The - Mr. Lonely (60) (Doo Wop)
TTITLE19=Statues, The - Blue Velvet (60) (Doo Wop)
EXTD=
EXTT0=
EXTT1=
EXTT2=
EXTT3=
EXTT4=
EXTT5=
EXTT6=
EXTT7=
EXTT8=
EXTT9=
EXTT10=
EXTT11=
EXTT12=
EXTT13=
EXTT14=
EXTT15=
EXTT16=
EXTT17=
EXTT18=
EXTT19=
PLAYORDER=
